solid ascii
  facet normal -1.000000e+000 -0.000000e+000 -0.000000e+000
    outer loop
      vertex   -5.500048e+001 1.850256e+002 6.000000e+001
      vertex   -5.500048e+001 1.850256e+002 5.000000e+001
      vertex   -5.500048e+001 1.800006e+002 6.000000e+001
    endloop
  endfacet
  facet normal -4.490015e-001 0.000000e+000 0.000000e+000
    outer loop
      vertex   -5.500048e+001 1.800006e+002 6.000000e+001
      vertex   -5.500048e+001 1.850256e+002 5.000000e+001
      vertex   -5.500048e+001 1.800006e+002 5.000000e+001
    endloop
  endfacet
  facet normal -1.000000e+000 0.000000e+000 0.000000e+000
    outer loop
      vertex   -5.500048e+001 2.749891e+002 5.000000e+001
      vertex   -5.500048e+001 2.749891e+002 6.000000e+001
      vertex   -5.500048e+001 2.800006e+002 5.000000e+001
    endloop
  endfacet
  facet normal -4.480385e-001 0.000000e+000 0.000000e+000
    outer loop
      vertex   -5.500048e+001 2.800006e+002 5.000000e+001
      vertex   -5.500048e+001 2.749891e+002 6.000000e+001
      vertex   -5.500048e+001 2.800006e+002 6.000000e+001
    endloop
  endfacet
  facet normal 0.000000e+000 1.000000e+000 0.000000e+000
    outer loop
      vertex   -6.009801e+001 1.800006e+002 5.000000e+001
      vertex   -6.009801e+001 1.800006e+002 6.000000e+001
      vertex   -5.500048e+001 1.800006e+002 5.000000e+001
    endloop
  endfacet
  facet normal 0.000000e+000 4.541520e-001 -0.000000e+000
    outer loop
      vertex   -5.500048e+001 1.800006e+002 5.000000e+001
      vertex   -6.009801e+001 1.800006e+002 6.000000e+001
      vertex   -5.500048e+001 1.800006e+002 6.000000e+001
    endloop
  endfacet
  facet normal 0.000000e+000 -1.000000e+000 0.000000e+000
    outer loop
      vertex   -1.499195e+002 2.800006e+002 5.000000e+001
      vertex   -1.499195e+002 2.800006e+002 6.000000e+001
      vertex   -1.550005e+002 2.800006e+002 5.000000e+001
    endloop
  endfacet
  facet normal 0.000000e+000 -4.529766e-001 0.000000e+000
    outer loop
      vertex   -1.550005e+002 2.800006e+002 5.000000e+001
      vertex   -1.499195e+002 2.800006e+002 6.000000e+001
      vertex   -1.550005e+002 2.800006e+002 6.000000e+001
    endloop
  endfacet
  facet normal 1.000000e+000 -0.000000e+000 0.000000e+000
    outer loop
      vertex   -1.550005e+002 2.749601e+002 6.000000e+001
      vertex   -1.550005e+002 2.749601e+002 5.000000e+001
      vertex   -1.550005e+002 2.800006e+002 6.000000e+001
    endloop
  endfacet
  facet normal 4.501043e-001 0.000000e+000 0.000000e+000
    outer loop
      vertex   -1.550005e+002 2.800006e+002 6.000000e+001
      vertex   -1.550005e+002 2.749601e+002 5.000000e+001
      vertex   -1.550005e+002 2.800006e+002 5.000000e+001
    endloop
  endfacet
  facet normal 1.000000e+000 0.000000e+000 -0.000000e+000
    outer loop
      vertex   -1.550005e+002 1.850420e+002 5.000000e+001
      vertex   -1.550005e+002 1.850420e+002 6.000000e+001
      vertex   -1.550005e+002 1.800006e+002 5.000000e+001
    endloop
  endfacet
  facet normal 4.501684e-001 0.000000e+000 0.000000e+000
    outer loop
      vertex   -1.550005e+002 1.800006e+002 5.000000e+001
      vertex   -1.550005e+002 1.850420e+002 6.000000e+001
      vertex   -1.550005e+002 1.800006e+002 6.000000e+001
    endloop
  endfacet
  facet normal 0.000000e+000 0.000000e+000 1.000000e+000
    outer loop
      vertex   -1.499195e+002 2.800006e+002 5.000000e+001
      vertex   -1.550005e+002 2.800006e+002 5.000000e+001
      vertex   -1.499195e+002 2.749601e+002 5.000000e+001
    endloop
  endfacet
  facet normal 0.000000e+000 0.000000e+000 7.042762e-001
    outer loop
      vertex   -1.499195e+002 2.749601e+002 5.000000e+001
      vertex   -1.550005e+002 2.800006e+002 5.000000e+001
      vertex   -1.550005e+002 2.749601e+002 5.000000e+001
    endloop
  endfacet
  facet normal 0.000000e+000 0.000000e+000 1.000000e+000
    outer loop
      vertex   -5.500048e+001 1.850256e+002 5.000000e+001
      vertex   -6.009801e+001 1.850256e+002 5.000000e+001
      vertex   -5.500048e+001 1.800006e+002 5.000000e+001
    endloop
  endfacet
  facet normal 0.000000e+000 0.000000e+000 7.020234e-001
    outer loop
      vertex   -5.500048e+001 1.800006e+002 5.000000e+001
      vertex   -6.009801e+001 1.850256e+002 5.000000e+001
      vertex   -6.009801e+001 1.800006e+002 5.000000e+001
    endloop
  endfacet
  facet normal 0.000000e+000 0.000000e+000 1.000000e+000
    outer loop
      vertex   -1.498472e+002 1.850420e+002 5.000000e+001
      vertex   -1.550005e+002 1.850420e+002 5.000000e+001
      vertex   -1.498472e+002 1.800006e+002 5.000000e+001
    endloop
  endfacet
  facet normal 0.000000e+000 0.000000e+000 6.993048e-001
    outer loop
      vertex   -1.498472e+002 1.800006e+002 5.000000e+001
      vertex   -1.550005e+002 1.850420e+002 5.000000e+001
      vertex   -1.550005e+002 1.800006e+002 5.000000e+001
    endloop
  endfacet
  facet normal 0.000000e+000 0.000000e+000 1.000000e+000
    outer loop
      vertex   -5.998232e+001 2.749891e+002 5.000000e+001
      vertex   -5.500048e+001 2.749891e+002 5.000000e+001
      vertex   -5.998232e+001 2.800006e+002 5.000000e+001
    endloop
  endfacet
  facet normal -0.000000e+000 0.000000e+000 7.092044e-001
    outer loop
      vertex   -5.998232e+001 2.800006e+002 5.000000e+001
      vertex   -5.500048e+001 2.749891e+002 5.000000e+001
      vertex   -5.500048e+001 2.800006e+002 5.000000e+001
    endloop
  endfacet
  facet normal 0.000000e+000 1.000000e+000 0.000000e+000
    outer loop
      vertex   -1.498472e+002 1.800006e+002 6.000000e+001
      vertex   -1.498472e+002 1.800006e+002 5.000000e+001
      vertex   -1.550005e+002 1.800006e+002 6.000000e+001
    endloop
  endfacet
  facet normal 0.000000e+000 4.580802e-001 0.000000e+000
    outer loop
      vertex   -1.550005e+002 1.800006e+002 6.000000e+001
      vertex   -1.498472e+002 1.800006e+002 5.000000e+001
      vertex   -1.550005e+002 1.800006e+002 5.000000e+001
    endloop
  endfacet
  facet normal 0.000000e+000 -1.000000e+000 0.000000e+000
    outer loop
      vertex   -5.998232e+001 2.800006e+002 6.000000e+001
      vertex   -5.998232e+001 2.800006e+002 5.000000e+001
      vertex   -5.500048e+001 2.800006e+002 6.000000e+001
    endloop
  endfacet
  facet normal 0.000000e+000 -4.459132e-001 -0.000000e+000
    outer loop
      vertex   -5.500048e+001 2.800006e+002 6.000000e+001
      vertex   -5.998232e+001 2.800006e+002 5.000000e+001
      vertex   -5.500048e+001 2.800006e+002 5.000000e+001
    endloop
  endfacet
  facet normal 0.000000e+000 0.000000e+000 1.000000e+000
    outer loop
      vertex   -5.998232e+001 2.800006e+002 6.000000e+001
      vertex   -5.500048e+001 2.800006e+002 6.000000e+001
      vertex   -5.998232e+001 2.849891e+002 6.000000e+001
    endloop
  endfacet
  facet normal -0.000000e+000 0.000000e+000 7.075760e-001
    outer loop
      vertex   -5.998232e+001 2.849891e+002 6.000000e+001
      vertex   -5.500048e+001 2.800006e+002 6.000000e+001
      vertex   -4.998232e+001 2.849891e+002 6.000000e+001
    endloop
  endfacet
  facet normal 0.000000e+000 0.000000e+000 7.092016e-001
    outer loop
      vertex   -4.998232e+001 2.849891e+002 6.000000e+001
      vertex   -5.500048e+001 2.800006e+002 6.000000e+001
      vertex   -4.998232e+001 2.749891e+002 6.000000e+001
    endloop
  endfacet
  facet normal 0.000000e+000 0.000000e+000 7.066400e-001
    outer loop
      vertex   -4.998232e+001 2.749891e+002 6.000000e+001
      vertex   -5.500048e+001 2.800006e+002 6.000000e+001
      vertex   -5.500048e+001 2.749891e+002 6.000000e+001
    endloop
  endfacet
  facet normal 0.000000e+000 -1.000000e+000 0.000000e+000
    outer loop
      vertex   -5.500048e+001 2.749891e+002 6.000000e+001
      vertex   -5.500048e+001 2.749891e+002 5.000000e+001
      vertex   -4.998232e+001 2.749891e+002 6.000000e+001
    endloop
  endfacet
  facet normal 0.000000e+000 -4.481952e-001 0.000000e+000
    outer loop
      vertex   -4.998232e+001 2.749891e+002 6.000000e+001
      vertex   -5.500048e+001 2.749891e+002 5.000000e+001
      vertex   -5.000000e+001 2.749891e+002 1.000000e+001
    endloop
  endfacet
  facet normal 0.000000e+000 -3.535461e-004 -0.000000e+000
    outer loop
      vertex   -4.998232e+001 2.749891e+002 6.000000e+001
      vertex   -5.000000e+001 2.749891e+002 1.000000e+001
      vertex   -4.998232e+001 2.749891e+002 1.000000e+001
    endloop
  endfacet
  facet normal 0.000000e+000 -1.000000e+000 0.000000e+000
    outer loop
      vertex   -5.998232e+001 2.749891e+002 5.000000e+001
      vertex   -5.998232e+001 2.749891e+002 1.000000e+001
      vertex   -5.500048e+001 2.749891e+002 5.000000e+001
    endloop
  endfacet
  facet normal 0.000000e+000 -2.457321e-001 -0.000000e+000
    outer loop
      vertex   -5.500048e+001 2.749891e+002 5.000000e+001
      vertex   -5.998232e+001 2.749891e+002 1.000000e+001
      vertex   -5.000000e+001 2.749891e+002 1.000000e+001
    endloop
  endfacet
  facet normal 0.000000e+000 0.000000e+000 1.000000e+000
    outer loop
      vertex   -1.498472e+002 1.800006e+002 6.000000e+001
      vertex   -1.550005e+002 1.800006e+002 6.000000e+001
      vertex   -1.498472e+002 1.750420e+002 6.000000e+001
    endloop
  endfacet
  facet normal 0.000000e+000 0.000000e+000 6.933652e-001
    outer loop
      vertex   -1.498472e+002 1.750420e+002 6.000000e+001
      vertex   -1.550005e+002 1.800006e+002 6.000000e+001
      vertex   -1.598472e+002 1.750420e+002 6.000000e+001
    endloop
  endfacet
  facet normal 0.000000e+000 0.000000e+000 6.989933e-001
    outer loop
      vertex   -1.598472e+002 1.750420e+002 6.000000e+001
      vertex   -1.550005e+002 1.800006e+002 6.000000e+001
      vertex   -1.598472e+002 1.850420e+002 6.000000e+001
    endloop
  endfacet
  facet normal -0.000000e+000 0.000000e+000 7.208882e-001
    outer loop
      vertex   -1.598472e+002 1.850420e+002 6.000000e+001
      vertex   -1.550005e+002 1.800006e+002 6.000000e+001
      vertex   -1.550005e+002 1.850420e+002 6.000000e+001
    endloop
  endfacet
  facet normal 0.000000e+000 1.000000e+000 0.000000e+000
    outer loop
      vertex   -1.550005e+002 1.850420e+002 6.000000e+001
      vertex   -1.550005e+002 1.850420e+002 5.000000e+001
      vertex   -1.598472e+002 1.850420e+002 6.000000e+001
    endloop
  endfacet
  facet normal 0.000000e+000 4.361453e-001 0.000000e+000
    outer loop
      vertex   -1.598472e+002 1.850420e+002 6.000000e+001
      vertex   -1.550005e+002 1.850420e+002 5.000000e+001
      vertex   -1.598472e+002 1.850420e+002 1.000000e+001
    endloop
  endfacet
  facet normal 0.000000e+000 9.927390e-001 0.000000e+000
    outer loop
      vertex   -1.598472e+002 1.850420e+002 1.000000e+001
      vertex   -1.550005e+002 1.850420e+002 5.000000e+001
      vertex   -1.498472e+002 1.850420e+002 1.000000e+001
    endloop
  endfacet
  facet normal 0.000000e+000 1.277758e-001 -0.000000e+000
    outer loop
      vertex   -1.498472e+002 1.850420e+002 1.000000e+001
      vertex   -1.550005e+002 1.850420e+002 5.000000e+001
      vertex   -1.498472e+002 1.850420e+002 5.000000e+001
    endloop
  endfacet
  facet normal -0.000000e+000 0.000000e+000 1.000000e+000
    outer loop
      vertex   -5.500048e+001 1.850256e+002 6.000000e+001
      vertex   -5.500048e+001 1.800006e+002 6.000000e+001
      vertex   -5.009801e+001 1.850256e+002 6.000000e+001
    endloop
  endfacet
  facet normal 0.000000e+000 0.000000e+000 6.983238e-001
    outer loop
      vertex   -5.009801e+001 1.850256e+002 6.000000e+001
      vertex   -5.500048e+001 1.800006e+002 6.000000e+001
      vertex   -5.009801e+001 1.750256e+002 6.000000e+001
    endloop
  endfacet
  facet normal 0.000000e+000 0.000000e+000 7.122787e-001
    outer loop
      vertex   -5.009801e+001 1.750256e+002 6.000000e+001
      vertex   -5.500048e+001 1.800006e+002 6.000000e+001
      vertex   -6.009801e+001 1.750256e+002 6.000000e+001
    endloop
  endfacet
  facet normal 0.000000e+000 0.000000e+000 7.156579e-001
    outer loop
      vertex   -6.009801e+001 1.750256e+002 6.000000e+001
      vertex   -5.500048e+001 1.800006e+002 6.000000e+001
      vertex   -6.009801e+001 1.800006e+002 6.000000e+001
    endloop
  endfacet
  facet normal -1.000000e+000 -0.000000e+000 -0.000000e+000
    outer loop
      vertex   -6.009801e+001 1.800006e+002 6.000000e+001
      vertex   -6.009801e+001 1.800006e+002 5.000000e+001
      vertex   -6.009801e+001 1.750256e+002 6.000000e+001
    endloop
  endfacet
  facet normal -4.454203e-001 0.000000e+000 0.000000e+000
    outer loop
      vertex   -6.009801e+001 1.750256e+002 6.000000e+001
      vertex   -6.009801e+001 1.800006e+002 5.000000e+001
      vertex   -6.009801e+001 1.750256e+002 1.000000e+001
    endloop
  endfacet
  facet normal -9.923541e-001 0.000000e+000 0.000000e+000
    outer loop
      vertex   -6.009801e+001 1.750256e+002 1.000000e+001
      vertex   -6.009801e+001 1.800006e+002 5.000000e+001
      vertex   -6.009801e+001 1.850256e+002 1.000000e+001
    endloop
  endfacet
  facet normal -1.246459e-001 0.000000e+000 0.000000e+000
    outer loop
      vertex   -6.009801e+001 1.850256e+002 1.000000e+001
      vertex   -6.009801e+001 1.800006e+002 5.000000e+001
      vertex   -6.009801e+001 1.850256e+002 5.000000e+001
    endloop
  endfacet
  facet normal 1.000000e+000 -0.000000e+000 0.000000e+000
    outer loop
      vertex   -1.499195e+002 2.800006e+002 6.000000e+001
      vertex   -1.499195e+002 2.800006e+002 5.000000e+001
      vertex   -1.499195e+002 2.849601e+002 6.000000e+001
    endloop
  endfacet
  facet normal 4.443088e-001 0.000000e+000 0.000000e+000
    outer loop
      vertex   -1.499195e+002 2.849601e+002 6.000000e+001
      vertex   -1.499195e+002 2.800006e+002 5.000000e+001
      vertex   -1.499195e+002 2.849601e+002 1.000000e+001
    endloop
  endfacet
  facet normal 9.924011e-001 0.000000e+000 0.000000e+000
    outer loop
      vertex   -1.499195e+002 2.849601e+002 1.000000e+001
      vertex   -1.499195e+002 2.800006e+002 5.000000e+001
      vertex   -1.499195e+002 2.749601e+002 1.000000e+001
    endloop
  endfacet
  facet normal 1.250237e-001 0.000000e+000 0.000000e+000
    outer loop
      vertex   -1.499195e+002 2.749601e+002 1.000000e+001
      vertex   -1.499195e+002 2.800006e+002 5.000000e+001
      vertex   -1.499195e+002 2.749601e+002 5.000000e+001
    endloop
  endfacet
  facet normal 0.000000e+000 0.000000e+000 -1.000000e+000
    outer loop
      vertex   -5.000000e+001 2.749891e+002 1.000000e+001
      vertex   -5.000000e+001 2.849891e+002 1.000000e+001
      vertex   -4.998232e+001 2.749891e+002 1.000000e+001
    endloop
  endfacet
  facet normal 0.000000e+000 0.000000e+000 -1.767728e-003
    outer loop
      vertex   -4.998232e+001 2.749891e+002 1.000000e+001
      vertex   -5.000000e+001 2.849891e+002 1.000000e+001
      vertex   -4.998232e+001 2.849891e+002 1.000000e+001
    endloop
  endfacet
  facet normal -1.000000e+000 0.000000e+000 0.000000e+000
    outer loop
      vertex   -5.998232e+001 2.800006e+002 6.000000e+001
      vertex   -5.998232e+001 2.849891e+002 6.000000e+001
      vertex   -5.998232e+001 2.800006e+002 5.000000e+001
    endloop
  endfacet
  facet normal -5.536953e-001 0.000000e+000 0.000000e+000
    outer loop
      vertex   -5.998232e+001 2.800006e+002 5.000000e+001
      vertex   -5.998232e+001 2.849891e+002 6.000000e+001
      vertex   -5.998232e+001 2.849891e+002 1.000000e+001
    endloop
  endfacet
  facet normal -2.461538e-001 0.000000e+000 -0.000000e+000
    outer loop
      vertex   -5.998232e+001 2.800006e+002 5.000000e+001
      vertex   -5.998232e+001 2.849891e+002 1.000000e+001
      vertex   -5.998232e+001 2.749891e+002 1.000000e+001
    endloop
  endfacet
  facet normal -1.243165e-001 0.000000e+000 0.000000e+000
    outer loop
      vertex   -5.998232e+001 2.749891e+002 1.000000e+001
      vertex   -5.998232e+001 2.749891e+002 5.000000e+001
      vertex   -5.998232e+001 2.800006e+002 5.000000e+001
    endloop
  endfacet
  facet normal 0.000000e+000 1.000000e+000 -0.000000e+000
    outer loop
      vertex   -4.998232e+001 2.849891e+002 1.000000e+001
      vertex   -5.000000e+001 2.849891e+002 1.000000e+001
      vertex   -4.998232e+001 2.849891e+002 6.000000e+001
    endloop
  endfacet
  facet normal 0.000000e+000 9.999999e-001 0.000000e+000
    outer loop
      vertex   -4.998232e+001 2.849891e+002 6.000000e+001
      vertex   -5.000000e+001 2.849891e+002 1.000000e+001
      vertex   -5.998232e+001 2.849891e+002 6.000000e+001
    endloop
  endfacet
  facet normal 0.000000e+000 1.957828e-001 0.000000e+000
    outer loop
      vertex   -5.998232e+001 2.849891e+002 6.000000e+001
      vertex   -5.000000e+001 2.849891e+002 1.000000e+001
      vertex   -5.998232e+001 2.849891e+002 1.000000e+001
    endloop
  endfacet
  facet normal 1.000000e+000 -0.000000e+000 0.000000e+000
    outer loop
      vertex   -4.998232e+001 2.749891e+002 6.000000e+001
      vertex   -4.998232e+001 2.749891e+002 1.000000e+001
      vertex   -4.998232e+001 2.849891e+002 6.000000e+001
    endloop
  endfacet
  facet normal 1.961161e-001 0.000000e+000 0.000000e+000
    outer loop
      vertex   -4.998232e+001 2.849891e+002 6.000000e+001
      vertex   -4.998232e+001 2.749891e+002 1.000000e+001
      vertex   -4.998232e+001 2.849891e+002 1.000000e+001
    endloop
  endfacet
  facet normal 0.000000e+000 0.000000e+000 1.000000e+000
    outer loop
      vertex   -5.000000e+001 2.749891e+002 1.000000e+001
      vertex   -5.998232e+001 2.749891e+002 1.000000e+001
      vertex   -5.000000e+001 2.249945e+002 1.000000e+001
    endloop
  endfacet
  facet normal 0.000000e+000 0.000000e+000 9.588608e-001
    outer loop
      vertex   -5.000000e+001 2.249945e+002 1.000000e+001
      vertex   -5.998232e+001 2.749891e+002 1.000000e+001
      vertex   -1.050000e+002 2.300000e+002 1.000000e+001
    endloop
  endfacet
  facet normal 0.000000e+000 0.000000e+000 9.877461e-001
    outer loop
      vertex   -5.000000e+001 2.249945e+002 1.000000e+001
      vertex   -1.050000e+002 2.300000e+002 1.000000e+001
      vertex   -6.009801e+001 1.850256e+002 1.000000e+001
    endloop
  endfacet
  facet normal 0.000000e+000 0.000000e+000 8.442575e-001
    outer loop
      vertex   -6.009801e+001 1.850256e+002 1.000000e+001
      vertex   -1.050000e+002 2.300000e+002 1.000000e+001
      vertex   -1.050000e+002 1.750330e+002 1.000000e+001
    endloop
  endfacet
  facet normal 0.000000e+000 0.000000e+000 9.761207e-001
    outer loop
      vertex   -6.009801e+001 1.850256e+002 1.000000e+001
      vertex   -1.050000e+002 1.750330e+002 1.000000e+001
      vertex   -6.009801e+001 1.750256e+002 1.000000e+001
    endloop
  endfacet
  facet normal 0.000000e+000 0.000000e+000 7.350400e-004
    outer loop
      vertex   -6.009801e+001 1.750256e+002 1.000000e+001
      vertex   -1.050000e+002 1.750330e+002 1.000000e+001
      vertex   -1.050000e+002 1.750000e+002 1.000000e+001
    endloop
  endfacet
  facet normal 0.000000e+000 0.000000e+000 3.109489e-003
    outer loop
      vertex   -6.009801e+001 1.750256e+002 1.000000e+001
      vertex   -1.050000e+002 1.750000e+002 1.000000e+001
      vertex   -5.000000e+001 1.750000e+002 1.000000e+001
    endloop
  endfacet
  facet normal 0.000000e+000 0.000000e+000 1.000000e+000
    outer loop
      vertex   -5.998232e+001 2.849891e+002 1.000000e+001
      vertex   -1.050000e+002 2.850000e+002 1.000000e+001
      vertex   -5.998232e+001 2.749891e+002 1.000000e+001
    endloop
  endfacet
  facet normal 0.000000e+000 0.000000e+000 2.173893e-001
    outer loop
      vertex   -5.998232e+001 2.749891e+002 1.000000e+001
      vertex   -1.050000e+002 2.850000e+002 1.000000e+001
      vertex   -1.050000e+002 2.749746e+002 1.000000e+001
    endloop
  endfacet
  facet normal 0.000000e+000 0.000000e+000 7.066543e-001
    outer loop
      vertex   -5.998232e+001 2.749891e+002 1.000000e+001
      vertex   -1.050000e+002 2.749746e+002 1.000000e+001
      vertex   -1.050000e+002 2.300000e+002 1.000000e+001
    endloop
  endfacet
  facet normal 0.000000e+000 -0.000000e+000 7.067875e-001
    outer loop
      vertex   -1.050000e+002 2.300000e+002 1.000000e+001
      vertex   -1.050000e+002 2.749746e+002 1.000000e+001
      vertex   -1.499195e+002 2.749601e+002 1.000000e+001
    endloop
  endfacet
  facet normal 0.000000e+000 0.000000e+000 7.074259e-001
    outer loop
      vertex   -1.050000e+002 2.300000e+002 1.000000e+001
      vertex   -1.499195e+002 2.749601e+002 1.000000e+001
      vertex   -1.600000e+002 2.300000e+002 1.000000e+001
    endloop
  endfacet
  facet normal 0.000000e+000 0.000000e+000 2.170309e-001
    outer loop
      vertex   -1.600000e+002 2.300000e+002 1.000000e+001
      vertex   -1.499195e+002 2.749601e+002 1.000000e+001
      vertex   -1.599195e+002 2.749601e+002 1.000000e+001
    endloop
  endfacet
  facet normal 0.000000e+000 0.000000e+000 1.789574e-003
    outer loop
      vertex   -1.600000e+002 2.300000e+002 1.000000e+001
      vertex   -1.599195e+002 2.749601e+002 1.000000e+001
      vertex   -1.600000e+002 2.850000e+002 1.000000e+001
    endloop
  endfacet
  facet normal 0.000000e+000 0.000000e+000 8.923631e-001
    outer loop
      vertex   -1.600000e+002 2.850000e+002 1.000000e+001
      vertex   -1.599195e+002 2.749601e+002 1.000000e+001
      vertex   -1.599195e+002 2.849601e+002 1.000000e+001
    endloop
  endfacet
  facet normal 0.000000e+000 0.000000e+000 4.406040e-001
    outer loop
      vertex   -1.600000e+002 2.850000e+002 1.000000e+001
      vertex   -1.599195e+002 2.849601e+002 1.000000e+001
      vertex   -1.499195e+002 2.849601e+002 1.000000e+001
    endloop
  endfacet
  facet normal 0.000000e+000 -0.000000e+000 1.000000e+000
    outer loop
      vertex   -5.000000e+001 2.849891e+002 1.000000e+001
      vertex   -5.000000e+001 2.850000e+002 1.000000e+001
      vertex   -5.998232e+001 2.849891e+002 1.000000e+001
    endloop
  endfacet
  facet normal 0.000000e+000 -0.000000e+000 1.337152e-003
    outer loop
      vertex   -5.998232e+001 2.849891e+002 1.000000e+001
      vertex   -5.000000e+001 2.850000e+002 1.000000e+001
      vertex   -1.050000e+002 2.850000e+002 1.000000e+001
    endloop
  endfacet
  facet normal 0.000000e+000 -0.000000e+000 9.761713e-001
    outer loop
      vertex   -1.050000e+002 2.749746e+002 1.000000e+001
      vertex   -1.050000e+002 2.850000e+002 1.000000e+001
      vertex   -1.499195e+002 2.849601e+002 1.000000e+001
    endloop
  endfacet
  facet normal 0.000000e+000 -0.000000e+000 4.844725e-003
    outer loop
      vertex   -1.499195e+002 2.849601e+002 1.000000e+001
      vertex   -1.050000e+002 2.850000e+002 1.000000e+001
      vertex   -1.600000e+002 2.850000e+002 1.000000e+001
    endloop
  endfacet
  facet normal 0.000000e+000 0.000000e+000 1.521447e-002
    outer loop
      vertex   -1.600000e+002 1.750000e+002 1.000000e+001
      vertex   -1.598472e+002 1.850420e+002 1.000000e+001
      vertex   -1.600000e+002 2.300000e+002 1.000000e+001
    endloop
  endfacet
  facet normal 0.000000e+000 0.000000e+000 2.169649e-001
    outer loop
      vertex   -1.600000e+002 2.300000e+002 1.000000e+001
      vertex   -1.598472e+002 1.850420e+002 1.000000e+001
      vertex   -1.498472e+002 1.850420e+002 1.000000e+001
    endloop
  endfacet
  facet normal -0.000000e+000 0.000000e+000 9.754363e-001
    outer loop
      vertex   -1.600000e+002 2.300000e+002 1.000000e+001
      vertex   -1.498472e+002 1.850420e+002 1.000000e+001
      vertex   -1.050000e+002 2.300000e+002 1.000000e+001
    endloop
  endfacet
  facet normal 0.000000e+000 0.000000e+000 7.062339e-001
    outer loop
      vertex   -1.050000e+002 2.300000e+002 1.000000e+001
      vertex   -1.498472e+002 1.850420e+002 1.000000e+001
      vertex   -1.050000e+002 1.750330e+002 1.000000e+001
    endloop
  endfacet
  facet normal 0.000000e+000 0.000000e+000 9.366790e-004
    outer loop
      vertex   -1.050000e+002 1.750000e+002 1.000000e+001
      vertex   -1.498472e+002 1.750420e+002 1.000000e+001
      vertex   -1.600000e+002 1.750000e+002 1.000000e+001
    endloop
  endfacet
  facet normal 0.000000e+000 0.000000e+000 2.610886e-001
    outer loop
      vertex   -1.600000e+002 1.750000e+002 1.000000e+001
      vertex   -1.498472e+002 1.750420e+002 1.000000e+001
      vertex   -1.598472e+002 1.750420e+002 1.000000e+001
    endloop
  endfacet
  facet normal 0.000000e+000 0.000000e+000 9.600816e-001
    outer loop
      vertex   -1.600000e+002 1.750000e+002 1.000000e+001
      vertex   -1.598472e+002 1.750420e+002 1.000000e+001
      vertex   -1.598472e+002 1.850420e+002 1.000000e+001
    endloop
  endfacet
  facet normal 0.000000e+000 0.000000e+000 2.452270e-003
    outer loop
      vertex   -5.000000e+001 2.249945e+002 1.000000e+001
      vertex   -5.009801e+001 1.850256e+002 1.000000e+001
      vertex   -5.000000e+001 1.750000e+002 1.000000e+001
    endloop
  endfacet
  facet normal 0.000000e+000 0.000000e+000 9.649389e-001
    outer loop
      vertex   -5.000000e+001 1.750000e+002 1.000000e+001
      vertex   -5.009801e+001 1.850256e+002 1.000000e+001
      vertex   -5.009801e+001 1.750256e+002 1.000000e+001
    endloop
  endfacet
  facet normal 0.000000e+000 0.000000e+000 2.505720e-001
    outer loop
      vertex   -5.000000e+001 1.750000e+002 1.000000e+001
      vertex   -5.009801e+001 1.750256e+002 1.000000e+001
      vertex   -6.009801e+001 1.750256e+002 1.000000e+001
    endloop
  endfacet
  facet normal 0.000000e+000 0.000000e+000 9.761713e-001
    outer loop
      vertex   -1.499195e+002 2.849601e+002 1.000000e+001
      vertex   -1.499195e+002 2.749601e+002 1.000000e+001
      vertex   -1.050000e+002 2.749746e+002 1.000000e+001
    endloop
  endfacet
  facet normal 0.000000e+000 0.000000e+000 9.695357e-001
    outer loop
      vertex   -6.009801e+001 1.850256e+002 1.000000e+001
      vertex   -5.009801e+001 1.850256e+002 1.000000e+001
      vertex   -5.000000e+001 2.249945e+002 1.000000e+001
    endloop
  endfacet
  facet normal 0.000000e+000 0.000000e+000 9.759887e-001
    outer loop
      vertex   -1.498472e+002 1.850420e+002 1.000000e+001
      vertex   -1.498472e+002 1.750420e+002 1.000000e+001
      vertex   -1.050000e+002 1.750330e+002 1.000000e+001
    endloop
  endfacet
  facet normal 0.000000e+000 0.000000e+000 1.000000e+000
    outer loop
      vertex   -1.050000e+002 1.750330e+002 1.000000e+001
      vertex   -1.498472e+002 1.750420e+002 1.000000e+001
      vertex   -1.050000e+002 1.750000e+002 1.000000e+001
    endloop
  endfacet
  facet normal 0.000000e+000 -1.000000e+000 0.000000e+000
    outer loop
      vertex   -1.598472e+002 1.750420e+002 6.000000e+001
      vertex   -1.598472e+002 1.750420e+002 1.000000e+001
      vertex   -1.498472e+002 1.750420e+002 6.000000e+001
    endloop
  endfacet
  facet normal 0.000000e+000 -1.961161e-001 -0.000000e+000
    outer loop
      vertex   -1.498472e+002 1.750420e+002 6.000000e+001
      vertex   -1.598472e+002 1.750420e+002 1.000000e+001
      vertex   -1.498472e+002 1.750420e+002 1.000000e+001
    endloop
  endfacet
  facet normal -1.000000e+000 -0.000000e+000 -0.000000e+000
    outer loop
      vertex   -1.598472e+002 1.850420e+002 6.000000e+001
      vertex   -1.598472e+002 1.850420e+002 1.000000e+001
      vertex   -1.598472e+002 1.750420e+002 6.000000e+001
    endloop
  endfacet
  facet normal -1.961161e-001 0.000000e+000 0.000000e+000
    outer loop
      vertex   -1.598472e+002 1.750420e+002 6.000000e+001
      vertex   -1.598472e+002 1.850420e+002 1.000000e+001
      vertex   -1.598472e+002 1.750420e+002 1.000000e+001
    endloop
  endfacet
  facet normal 1.000000e+000 0.000000e+000 0.000000e+000
    outer loop
      vertex   -1.498472e+002 1.800006e+002 6.000000e+001
      vertex   -1.498472e+002 1.750420e+002 6.000000e+001
      vertex   -1.498472e+002 1.800006e+002 5.000000e+001
    endloop
  endfacet
  facet normal 5.510869e-001 0.000000e+000 0.000000e+000
    outer loop
      vertex   -1.498472e+002 1.800006e+002 5.000000e+001
      vertex   -1.498472e+002 1.750420e+002 6.000000e+001
      vertex   -1.498472e+002 1.750420e+002 1.000000e+001
    endloop
  endfacet
  facet normal 2.461536e-001 0.000000e+000 0.000000e+000
    outer loop
      vertex   -1.498472e+002 1.800006e+002 5.000000e+001
      vertex   -1.498472e+002 1.750420e+002 1.000000e+001
      vertex   -1.498472e+002 1.850420e+002 1.000000e+001
    endloop
  endfacet
  facet normal 1.250457e-001 0.000000e+000 -0.000000e+000
    outer loop
      vertex   -1.498472e+002 1.850420e+002 1.000000e+001
      vertex   -1.498472e+002 1.850420e+002 5.000000e+001
      vertex   -1.498472e+002 1.800006e+002 5.000000e+001
    endloop
  endfacet
  facet normal 0.000000e+000 -1.000000e+000 0.000000e+000
    outer loop
      vertex   -6.009801e+001 1.750256e+002 6.000000e+001
      vertex   -6.009801e+001 1.750256e+002 1.000000e+001
      vertex   -5.009801e+001 1.750256e+002 6.000000e+001
    endloop
  endfacet
  facet normal 0.000000e+000 -1.961161e-001 -0.000000e+000
    outer loop
      vertex   -5.009801e+001 1.750256e+002 6.000000e+001
      vertex   -6.009801e+001 1.750256e+002 1.000000e+001
      vertex   -5.009801e+001 1.750256e+002 1.000000e+001
    endloop
  endfacet
  facet normal -0.000000e+000 1.000000e+000 0.000000e+000
    outer loop
      vertex   -5.500048e+001 1.850256e+002 6.000000e+001
      vertex   -5.009801e+001 1.850256e+002 6.000000e+001
      vertex   -5.500048e+001 1.850256e+002 5.000000e+001
    endloop
  endfacet
  facet normal -0.000000e+000 5.461552e-001 0.000000e+000
    outer loop
      vertex   -5.500048e+001 1.850256e+002 5.000000e+001
      vertex   -5.009801e+001 1.850256e+002 6.000000e+001
      vertex   -5.009801e+001 1.850256e+002 1.000000e+001
    endloop
  endfacet
  facet normal 0.000000e+000 2.461524e-001 0.000000e+000
    outer loop
      vertex   -5.500048e+001 1.850256e+002 5.000000e+001
      vertex   -5.009801e+001 1.850256e+002 1.000000e+001
      vertex   -6.009801e+001 1.850256e+002 1.000000e+001
    endloop
  endfacet
  facet normal 0.000000e+000 1.264161e-001 0.000000e+000
    outer loop
      vertex   -6.009801e+001 1.850256e+002 1.000000e+001
      vertex   -6.009801e+001 1.850256e+002 5.000000e+001
      vertex   -5.500048e+001 1.850256e+002 5.000000e+001
    endloop
  endfacet
  facet normal 1.000000e+000 -0.000000e+000 0.000000e+000
    outer loop
      vertex   -5.009801e+001 1.750256e+002 6.000000e+001
      vertex   -5.009801e+001 1.750256e+002 1.000000e+001
      vertex   -5.009801e+001 1.850256e+002 6.000000e+001
    endloop
  endfacet
  facet normal 1.961161e-001 0.000000e+000 0.000000e+000
    outer loop
      vertex   -5.009801e+001 1.850256e+002 6.000000e+001
      vertex   -5.009801e+001 1.750256e+002 1.000000e+001
      vertex   -5.009801e+001 1.850256e+002 1.000000e+001
    endloop
  endfacet
  facet normal 0.000000e+000 -0.000000e+000 1.000000e+000
    outer loop
      vertex   -1.499195e+002 2.800006e+002 6.000000e+001
      vertex   -1.499195e+002 2.849601e+002 6.000000e+001
      vertex   -1.550005e+002 2.800006e+002 6.000000e+001
    endloop
  endfacet
  facet normal 0.000000e+000 -0.000000e+000 9.999680e-001
    outer loop
      vertex   -1.550005e+002 2.800006e+002 6.000000e+001
      vertex   -1.499195e+002 2.849601e+002 6.000000e+001
      vertex   -1.599195e+002 2.849601e+002 6.000000e+001
    endloop
  endfacet
  facet normal 0.000000e+000 0.000000e+000 9.998674e-001
    outer loop
      vertex   -1.550005e+002 2.800006e+002 6.000000e+001
      vertex   -1.599195e+002 2.849601e+002 6.000000e+001
      vertex   -1.599195e+002 2.749601e+002 6.000000e+001
    endloop
  endfacet
  facet normal 0.000000e+000 0.000000e+000 7.156748e-001
    outer loop
      vertex   -1.599195e+002 2.749601e+002 6.000000e+001
      vertex   -1.550005e+002 2.749601e+002 6.000000e+001
      vertex   -1.550005e+002 2.800006e+002 6.000000e+001
    endloop
  endfacet
  facet normal -0.000000e+000 -1.000000e+000 -0.000000e+000
    outer loop
      vertex   -1.550005e+002 2.749601e+002 6.000000e+001
      vertex   -1.599195e+002 2.749601e+002 6.000000e+001
      vertex   -1.550005e+002 2.749601e+002 5.000000e+001
    endloop
  endfacet
  facet normal -0.000000e+000 -5.476177e-001 0.000000e+000
    outer loop
      vertex   -1.550005e+002 2.749601e+002 5.000000e+001
      vertex   -1.599195e+002 2.749601e+002 6.000000e+001
      vertex   -1.599195e+002 2.749601e+002 1.000000e+001
    endloop
  endfacet
  facet normal 0.000000e+000 -2.461529e-001 -0.000000e+000
    outer loop
      vertex   -1.550005e+002 2.749601e+002 5.000000e+001
      vertex   -1.599195e+002 2.749601e+002 1.000000e+001
      vertex   -1.499195e+002 2.749601e+002 1.000000e+001
    endloop
  endfacet
  facet normal 0.000000e+000 -1.260108e-001 0.000000e+000
    outer loop
      vertex   -1.499195e+002 2.749601e+002 1.000000e+001
      vertex   -1.499195e+002 2.749601e+002 5.000000e+001
      vertex   -1.550005e+002 2.749601e+002 5.000000e+001
    endloop
  endfacet
  facet normal -1.000000e+000 -0.000000e+000 -0.000000e+000
    outer loop
      vertex   -1.599195e+002 2.849601e+002 6.000000e+001
      vertex   -1.599195e+002 2.849601e+002 1.000000e+001
      vertex   -1.599195e+002 2.749601e+002 6.000000e+001
    endloop
  endfacet
  facet normal -1.961161e-001 0.000000e+000 0.000000e+000
    outer loop
      vertex   -1.599195e+002 2.749601e+002 6.000000e+001
      vertex   -1.599195e+002 2.849601e+002 1.000000e+001
      vertex   -1.599195e+002 2.749601e+002 1.000000e+001
    endloop
  endfacet
  facet normal 0.000000e+000 1.000000e+000 0.000000e+000
    outer loop
      vertex   -1.499195e+002 2.849601e+002 6.000000e+001
      vertex   -1.499195e+002 2.849601e+002 1.000000e+001
      vertex   -1.599195e+002 2.849601e+002 6.000000e+001
    endloop
  endfacet
  facet normal 0.000000e+000 1.961161e-001 0.000000e+000
    outer loop
      vertex   -1.599195e+002 2.849601e+002 6.000000e+001
      vertex   -1.499195e+002 2.849601e+002 1.000000e+001
      vertex   -1.599195e+002 2.849601e+002 1.000000e+001
    endloop
  endfacet
  facet normal 0.000000e+000 0.000000e+000 -1.000000e+000
    outer loop
      vertex   -1.050000e+002 2.850000e+002 0.000000e+000
      vertex   -5.000000e+001 2.850000e+002 0.000000e+000
      vertex   -1.050000e+002 2.300000e+002 0.000000e+000
    endloop
  endfacet
  facet normal 0.000000e+000 0.000000e+000 -7.071068e-001
    outer loop
      vertex   -1.050000e+002 2.300000e+002 0.000000e+000
      vertex   -5.000000e+001 2.850000e+002 0.000000e+000
      vertex   -5.000000e+001 2.300000e+002 0.000000e+000
    endloop
  endfacet
  facet normal 0.000000e+000 0.000000e+000 -1.000000e+000
    outer loop
      vertex   -1.050000e+002 2.300000e+002 0.000000e+000
      vertex   -5.000000e+001 2.300000e+002 0.000000e+000
      vertex   -1.050000e+002 1.750000e+002 0.000000e+000
    endloop
  endfacet
  facet normal 0.000000e+000 0.000000e+000 -7.071068e-001
    outer loop
      vertex   -1.050000e+002 1.750000e+002 0.000000e+000
      vertex   -5.000000e+001 2.300000e+002 0.000000e+000
      vertex   -5.000000e+001 1.750000e+002 0.000000e+000
    endloop
  endfacet
  facet normal 0.000000e+000 0.000000e+000 -1.000000e+000
    outer loop
      vertex   -1.050000e+002 1.750000e+002 0.000000e+000
      vertex   -1.600000e+002 1.750000e+002 0.000000e+000
      vertex   -1.050000e+002 2.300000e+002 0.000000e+000
    endloop
  endfacet
  facet normal -0.000000e+000 0.000000e+000 -7.071068e-001
    outer loop
      vertex   -1.050000e+002 2.300000e+002 0.000000e+000
      vertex   -1.600000e+002 1.750000e+002 0.000000e+000
      vertex   -1.600000e+002 2.300000e+002 0.000000e+000
    endloop
  endfacet
  facet normal 0.000000e+000 0.000000e+000 -1.000000e+000
    outer loop
      vertex   -1.050000e+002 2.300000e+002 0.000000e+000
      vertex   -1.600000e+002 2.300000e+002 0.000000e+000
      vertex   -1.050000e+002 2.850000e+002 0.000000e+000
    endloop
  endfacet
  facet normal -0.000000e+000 0.000000e+000 -7.071068e-001
    outer loop
      vertex   -1.050000e+002 2.850000e+002 0.000000e+000
      vertex   -1.600000e+002 2.300000e+002 0.000000e+000
      vertex   -1.600000e+002 2.850000e+002 0.000000e+000
    endloop
  endfacet
  facet normal 0.000000e+000 -1.000000e+000 0.000000e+000
    outer loop
      vertex   -1.600000e+002 1.750000e+002 1.000000e+001
      vertex   -1.600000e+002 1.750000e+002 0.000000e+000
      vertex   -1.050000e+002 1.750000e+002 1.000000e+001
    endloop
  endfacet
  facet normal 0.000000e+000 -9.838699e-001 -0.000000e+000
    outer loop
      vertex   -1.050000e+002 1.750000e+002 1.000000e+001
      vertex   -1.600000e+002 1.750000e+002 0.000000e+000
      vertex   -1.050000e+002 1.750000e+002 0.000000e+000
    endloop
  endfacet
  facet normal 0.000000e+000 -1.000000e+000 0.000000e+000
    outer loop
      vertex   -1.050000e+002 1.750000e+002 1.000000e+001
      vertex   -1.050000e+002 1.750000e+002 0.000000e+000
      vertex   -5.000000e+001 1.750000e+002 1.000000e+001
    endloop
  endfacet
  facet normal 0.000000e+000 -9.838699e-001 -0.000000e+000
    outer loop
      vertex   -5.000000e+001 1.750000e+002 1.000000e+001
      vertex   -1.050000e+002 1.750000e+002 0.000000e+000
      vertex   -5.000000e+001 1.750000e+002 0.000000e+000
    endloop
  endfacet
  facet normal -1.000000e+000 -0.000000e+000 -0.000000e+000
    outer loop
      vertex   -1.600000e+002 2.850000e+002 1.000000e+001
      vertex   -1.600000e+002 2.850000e+002 0.000000e+000
      vertex   -1.600000e+002 2.300000e+002 1.000000e+001
    endloop
  endfacet
  facet normal -9.838699e-001 0.000000e+000 0.000000e+000
    outer loop
      vertex   -1.600000e+002 2.300000e+002 1.000000e+001
      vertex   -1.600000e+002 2.850000e+002 0.000000e+000
      vertex   -1.600000e+002 2.300000e+002 0.000000e+000
    endloop
  endfacet
  facet normal -1.000000e+000 -0.000000e+000 -0.000000e+000
    outer loop
      vertex   -1.600000e+002 2.300000e+002 1.000000e+001
      vertex   -1.600000e+002 2.300000e+002 0.000000e+000
      vertex   -1.600000e+002 1.750000e+002 1.000000e+001
    endloop
  endfacet
  facet normal -9.838699e-001 0.000000e+000 0.000000e+000
    outer loop
      vertex   -1.600000e+002 1.750000e+002 1.000000e+001
      vertex   -1.600000e+002 2.300000e+002 0.000000e+000
      vertex   -1.600000e+002 1.750000e+002 0.000000e+000
    endloop
  endfacet
  facet normal 0.000000e+000 1.000000e+000 0.000000e+000
    outer loop
      vertex   -5.000000e+001 2.850000e+002 1.000000e+001
      vertex   -5.000000e+001 2.850000e+002 0.000000e+000
      vertex   -1.050000e+002 2.850000e+002 1.000000e+001
    endloop
  endfacet
  facet normal 0.000000e+000 9.838699e-001 0.000000e+000
    outer loop
      vertex   -1.050000e+002 2.850000e+002 1.000000e+001
      vertex   -5.000000e+001 2.850000e+002 0.000000e+000
      vertex   -1.050000e+002 2.850000e+002 0.000000e+000
    endloop
  endfacet
  facet normal 0.000000e+000 1.000000e+000 0.000000e+000
    outer loop
      vertex   -1.050000e+002 2.850000e+002 1.000000e+001
      vertex   -1.050000e+002 2.850000e+002 0.000000e+000
      vertex   -1.600000e+002 2.850000e+002 1.000000e+001
    endloop
  endfacet
  facet normal 0.000000e+000 9.838699e-001 0.000000e+000
    outer loop
      vertex   -1.600000e+002 2.850000e+002 1.000000e+001
      vertex   -1.050000e+002 2.850000e+002 0.000000e+000
      vertex   -1.600000e+002 2.850000e+002 0.000000e+000
    endloop
  endfacet
  facet normal 1.000000e+000 -0.000000e+000 0.000000e+000
    outer loop
      vertex   -5.000000e+001 1.750000e+002 1.000000e+001
      vertex   -5.000000e+001 1.750000e+002 0.000000e+000
      vertex   -5.000000e+001 2.249945e+002 1.000000e+001
    endloop
  endfacet
  facet normal 9.646543e-001 0.000000e+000 0.000000e+000
    outer loop
      vertex   -5.000000e+001 2.249945e+002 1.000000e+001
      vertex   -5.000000e+001 1.750000e+002 0.000000e+000
      vertex   -5.000000e+001 2.300000e+002 0.000000e+000
    endloop
  endfacet
  facet normal 8.942317e-001 -0.000000e+000 0.000000e+000
    outer loop
      vertex   -5.000000e+001 2.249945e+002 1.000000e+001
      vertex   -5.000000e+001 2.300000e+002 0.000000e+000
      vertex   -5.000000e+001 2.749891e+002 1.000000e+001
    endloop
  endfacet
  facet normal 8.433959e-001 0.000000e+000 0.000000e+000
    outer loop
      vertex   -5.000000e+001 2.749891e+002 1.000000e+001
      vertex   -5.000000e+001 2.300000e+002 0.000000e+000
      vertex   -5.000000e+001 2.850000e+002 0.000000e+000
    endloop
  endfacet
  facet normal 7.067206e-001 -0.000000e+000 0.000000e+000
    outer loop
      vertex   -5.000000e+001 2.749891e+002 1.000000e+001
      vertex   -5.000000e+001 2.850000e+002 0.000000e+000
      vertex   -5.000000e+001 2.849891e+002 1.000000e+001
    endloop
  endfacet
  facet normal 9.999994e-001 -0.000000e+000 0.000000e+000
    outer loop
      vertex   -5.000000e+001 2.849891e+002 1.000000e+001
      vertex   -5.000000e+001 2.850000e+002 0.000000e+000
      vertex   -5.000000e+001 2.850000e+002 1.000000e+001
    endloop
  endfacet
endsolid
